<svg width="78" height="57" viewBox="0 0 78 57" fill="none" xmlns="http://www.w3.org/2000/svg">
<path d="M37.9148 53.5326C36.0458 54.6702 31.2534 57.233 24.7288 56.9864C16.7734 56.6917 11.5018 52.4294 9.97503 51.0931C7.96222 49.3114 2.35509 43.8636 0.55451 34.8319C-0.725749 28.3973 0.513433 23.1071 1.34184 20.4551C1.95116 18.1389 3.74489 12.5609 8.95493 7.7298C13.7542 3.2756 18.93 1.80229 21.2783 1.28835C23.2843 0.767549 27.6454 -0.0821747 32.8965 1.28835C38.0107 2.61775 41.3517 5.3725 42.8579 6.78414C44.4051 8.23689 47.4928 11.0259 49.2181 15.8159C49.9369 17.8237 51.7854 22.9563 49.6083 27.76C48.8484 29.4389 47.7393 30.7477 46.1578 32.6322C44.453 34.6537 42.8236 36.1613 41.605 37.1892C42.0979 38.1485 43.5425 40.6292 46.548 42.1367C51.0597 44.3981 55.4414 42.6576 56.126 42.3697C57.3446 41.9586 60.7336 40.636 63.2667 37.1069C66.1764 33.0502 66.0189 28.7947 65.9368 27.6024C65.9231 26.2661 65.6971 22.3807 62.8765 18.8036C60.4529 15.7268 57.4336 14.5619 56.3588 14.1713C53.8941 13.2599 51.717 13.1776 50.3956 13.2256C49.7932 11.6975 48.6772 9.39498 46.6302 7.09936C44.7611 5.00931 42.8236 3.70732 41.4475 2.93297C43.1112 1.9599 46.103 0.50715 50.0807 0.102846C55.4961 -0.445363 59.5971 1.26779 61.6167 2.14492C65.9162 4.00883 68.8122 6.66764 70.4896 8.511C72.2901 10.4708 74.6247 13.5408 76.2199 17.7826C79.6842 27.0199 77.1921 35.3458 76.2199 38.128C75.5079 40.3071 73.2144 46.3854 66.9569 51.0109C61.2813 55.2115 55.4824 55.8899 53.141 56.0407C50.6558 56.0407 44.7885 55.6912 39.0102 51.7989C35.5734 49.4827 33.4168 46.7554 32.1845 44.8846C31.1781 43.5826 28.5901 39.8411 29.1995 35.2225C29.6376 31.9195 31.5341 29.5896 33.5948 27.0542C35.4981 24.7174 37.4219 23.1071 38.7775 22.1066C38.4968 21.4282 36.1553 16.0626 30.0621 14.3289C23.7156 12.5198 18.7383 16.1996 18.2111 16.6039C17.28 17.2892 13.2613 20.414 12.248 26.1085C11.4607 30.5079 12.9121 33.9753 13.5009 35.2225C14.0554 36.4422 15.6506 39.5396 19.2312 41.7462C23.25 44.2268 27.214 43.9938 28.4943 43.8705C29.2611 45.3232 30.4523 47.2214 32.2598 49.1333C34.3 51.285 36.3812 52.6692 37.9148 53.5326Z" fill="url(#paint0_linear_399_351)"/>
<defs>
<linearGradient id="paint0_linear_399_351" x1="-4.05789e-05" y1="28.5018" x2="77.9986" y2="28.5018" gradientUnits="userSpaceOnUse">
<stop stop-color="#57B2FF"/>
<stop offset="1" stop-color="#2E64BD"/>
</linearGradient>
</defs>
</svg>
